<svg version="1.1" viewBox="0.0 0.0 960.0 720.0" fill="none" stroke="none" stroke-linecap="square" stroke-miterlimit="10" xmlns:xlink="http://www.w3.org/1999/xlink" xmlns="http://www.w3.org/2000/svg"><clipPath id="p.0"><path d="m0 0l960.0 0l0 720.0l-960.0 0l0 -720.0z" clip-rule="nonzero"/></clipPath><g clip-path="url(#p.0)"><path fill="#000000" fill-opacity="0.0" d="m0 0l960.0 0l0 720.0l-960.0 0z" fill-rule="evenodd"/><path fill="#f2b534" d="m166.0268 571.09045l0 -478.67715l124.12598 478.67715z" fill-rule="evenodd"/><path fill="#ea9f00" d="m290.15128 92.40964l0 478.67715l-124.12599 -478.67715z" fill-rule="evenodd"/><path fill="#f4a19d" d="m332.69153 571.0743l0 -377.60626l124.12598 377.60626z" fill-rule="evenodd"/><path fill="#ee8782" d="m456.816 193.4805l0 377.6063l-124.12598 -377.6063z" fill-rule="evenodd"/><path fill="#e590f6" d="m499.3563 571.0891l0 -266.45667l124.125946 266.45667z" fill-rule="evenodd"/><path fill="#e76aff" d="m623.4808 304.6301l0 266.4567l-124.12601 -266.4567z" fill-rule="evenodd"/><path fill="#82bbef" d="m666.02106 571.0819l0 -298.83463l124.12598 298.83463z" fill-rule="evenodd"/><path fill="#3595eb" d="m790.1455 272.25217l0 298.83463l-124.12598 -298.83463z" fill-rule="evenodd"/><path fill="#666666" d="m134.99213 611.337l0 0c0 -8.975708 7.2762604 -16.252014 16.251968 -16.252014l657.51184 0c4.3103027 0 8.444031 1.7122803 11.491882 4.760132c3.0477905 3.0478516 4.760071 7.1815796 4.760071 11.491882l0 0l0 0c0 8.975708 -7.276245 16.251953 -16.251953 16.251953l-657.51184 0c-8.975708 0 -16.251968 -7.276245 -16.251968 -16.251953z" fill-rule="evenodd"/></g></svg>