<svg version="1.1" viewBox="0.0 0.0 1280.0 455.0" fill="none" stroke="none" stroke-linecap="square" stroke-miterlimit="10" xmlns:xlink="http://www.w3.org/1999/xlink" xmlns="http://www.w3.org/2000/svg"><clipPath id="p.0"><path d="m0 0l1280.0 0l0 455.0l-1280.0 0l0 -455.0z" clip-rule="nonzero"/></clipPath><g clip-path="url(#p.0)"><path fill="#000000" fill-opacity="0.0" d="m0 0l1280.0 0l0 455.0l-1280.0 0z" fill-rule="evenodd"/><path fill="#000000" fill-opacity="0.0" d="m735.6772 253.65617c12.29657 2.743637 51.42212 10.059494 73.77948 16.46193c22.357422 6.402466 40.141296 14.127289 60.36487 21.952759c20.22351 7.82547 38.21216 16.565186 60.97638 25.0c22.764221 8.434814 55.486877 20.019684 75.60889 25.608917c20.122131 5.589264 34.1474 6.402008 45.123352 7.9265137c10.975952 1.5245056 17.276978 1.0170593 20.7323 1.2204895" fill-rule="evenodd"/><path stroke="#85200c" stroke-width="24.0" stroke-linejoin="round" stroke-linecap="butt" d="m735.6772 253.65617c12.29657 2.743637 51.42212 10.059494 73.77948 16.46193c22.357422 6.402466 40.141296 14.127289 60.36487 21.952759c20.22351 7.82547 38.21216 16.565186 60.97638 25.0c22.764221 8.434814 55.486877 20.019684 75.60889 25.608917c20.122131 5.589264 34.1474 6.402008 45.123352 7.9265137c10.975952 1.5245056 17.276978 1.0170593 20.7323 1.2204895" fill-rule="evenodd"/><path fill="#000000" fill-opacity="0.0" d="m1071.2651 349.08136l-114.64569 243.90552" fill-rule="evenodd"/><path stroke="#85200c" stroke-width="16.0" stroke-linejoin="round" stroke-linecap="butt" d="m1071.2651 349.08136l-114.64569 243.90552" fill-rule="evenodd"/><path fill="#85200c" d="m1063.5538 348.04724l0 0c0 -4.470459 3.6240234 -8.094482 8.094482 -8.094482l0 0c2.1467285 0 4.2056885 0.8528137 5.723633 2.370819c1.5180664 1.5180054 2.3708496 3.5768738 2.3708496 5.7236633l0 0c0 4.470459 -3.6240234 8.094482 -8.094482 8.094482l0 0c-4.470459 0 -8.094482 -3.6240234 -8.094482 -8.094482z" fill-rule="evenodd"/><path fill="#ffdab7" d="m1070.2458 347.16016l-5.511841 -106.17323l-58.078674 109.4803z" fill-rule="evenodd"/><path fill="#a61c00" d="m904.63257 577.96716l152.75586 -332.18896l-429.3543 205.00786z" fill-rule="evenodd"/><path fill="#a61c00" d="m740.71655 145.11395l-107.1496 349.5748l427.96844 -251.27559z" fill-rule="evenodd"/><path fill="#ffdab7" d="m871.5375 629.6395l146.67712 -307.2441l52.031494 24.818909l-146.67712 307.2441z" fill-rule="evenodd"/><path fill="#b02408" d="m840.1212 698.3102l213.79529 -453.88974l-511.622 313.6063z" fill-rule="evenodd"/><path fill="#000000" fill-opacity="0.0" d="m728.04724 138.4147c12.29657 2.7436523 51.42212 10.059494 73.77954 16.461945c22.35736 6.4024353 40.141296 14.127289 60.364807 21.952744c20.223572 7.82547 38.21216 16.565186 60.97638 25.0c22.764221 8.43483 55.486877 20.019684 75.60895 25.608932c20.12201 5.5892334 34.1474 6.402008 45.123352 7.9264984c10.975952 1.5245056 17.276855 1.0170746 20.7323 1.2204742" fill-rule="evenodd"/><path stroke="#85200c" stroke-width="24.0" stroke-linejoin="round" stroke-linecap="butt" d="m728.04724 138.4147c12.29657 2.7436523 51.42212 10.059494 73.77954 16.461945c22.35736 6.4024353 40.141296 14.127289 60.364807 21.952744c20.223572 7.82547 38.21216 16.565186 60.97638 25.0c22.764221 8.43483 55.486877 20.019684 75.60895 25.608932c20.12201 5.5892334 34.1474 6.402008 45.123352 7.9264984c10.975952 1.5245056 17.276855 1.0170746 20.7323 1.2204742" fill-rule="evenodd"/><path fill="#000000" fill-opacity="0.0" d="m1063.6351 233.83989l-114.64563 243.9055" fill-rule="evenodd"/><path stroke="#85200c" stroke-width="16.0" stroke-linejoin="round" stroke-linecap="butt" d="m1063.6351 233.83989l-114.64563 243.9055" fill-rule="evenodd"/><path fill="#85200c" d="m1055.9238 232.80577l0 0c0 -4.470459 3.6240234 -8.094482 8.0946045 -8.094482l0 0c2.1467285 0 4.2055664 0.8528137 5.723633 2.370819c1.5179443 1.5180054 2.3708496 3.5768738 2.3708496 5.7236633l0 0c0 4.470459 -3.6240234 8.094498 -8.094482 8.094498l0 0c-4.470581 0 -8.0946045 -3.6240387 -8.0946045 -8.094498z" fill-rule="evenodd"/><g filter="url(#shadowFilter-p.1)"><use xlink:href="#p.1" transform="matrix(1.0 0.0 0.0 1.0 0.0 2.0)"/></g><defs><filter id="shadowFilter-p.1" filterUnits="userSpaceOnUse"><feGaussianBlur in="SourceAlpha" stdDeviation="2.0" result="blur"/><feComponentTransfer in="blur" color-interpolation-filters="sRGB"><feFuncR type="linear" slope="0" intercept="0.0"/><feFuncG type="linear" slope="0" intercept="0.0"/><feFuncB type="linear" slope="0" intercept="0.0"/><feFuncA type="linear" slope="0.1" intercept="0"/></feComponentTransfer></filter></defs><g id="p.1"><path fill="#000000" fill-opacity="0.0" d="m786.0752 260.2222l117.4173 46.141724" fill-rule="evenodd"/><path stroke="#fff2cc" stroke-width="4.0" stroke-linejoin="round" stroke-linecap="butt" d="m786.0752 260.2222l117.4173 46.141724" fill-rule="evenodd"/></g><g filter="url(#shadowFilter-p.2)"><use xlink:href="#p.2" transform="matrix(1.0 0.0 0.0 1.0 0.0 2.0)"/></g><defs><filter id="shadowFilter-p.2" filterUnits="userSpaceOnUse"><feGaussianBlur in="SourceAlpha" stdDeviation="2.0" result="blur"/><feComponentTransfer in="blur" color-interpolation-filters="sRGB"><feFuncR type="linear" slope="0" intercept="0.0"/><feFuncG type="linear" slope="0" intercept="0.0"/><feFuncB type="linear" slope="0" intercept="0.0"/><feFuncA type="linear" slope="0.1" intercept="0"/></feComponentTransfer></filter></defs><g id="p.2"><path fill="#000000" fill-opacity="0.0" d="m751.56335 336.59357l118.01575 48.283478" fill-rule="evenodd"/><path stroke="#fff2cc" stroke-width="4.0" stroke-linejoin="round" stroke-linecap="butt" d="m751.56335 336.59357l118.01575 48.283478" fill-rule="evenodd"/></g><g filter="url(#shadowFilter-p.3)"><use xlink:href="#p.3" transform="matrix(1.0 0.0 0.0 1.0 0.0 2.0)"/></g><defs><filter id="shadowFilter-p.3" filterUnits="userSpaceOnUse"><feGaussianBlur in="SourceAlpha" stdDeviation="2.0" result="blur"/><feComponentTransfer in="blur" color-interpolation-filters="sRGB"><feFuncR type="linear" slope="0" intercept="0.0"/><feFuncG type="linear" slope="0" intercept="0.0"/><feFuncB type="linear" slope="0" intercept="0.0"/><feFuncA type="linear" slope="0.1" intercept="0"/></feComponentTransfer></filter></defs><g id="p.3"><path fill="#000000" fill-opacity="0.0" d="m752.2773 381.4151l30.047241 12.692902" fill-rule="evenodd"/><path stroke="#fff2cc" stroke-width="4.0" stroke-linejoin="round" stroke-linecap="butt" d="m752.2773 381.4151l30.047241 12.692902" fill-rule="evenodd"/></g><g filter="url(#shadowFilter-p.4)"><use xlink:href="#p.4" transform="matrix(1.0 0.0 0.0 1.0 0.0 2.0)"/></g><defs><filter id="shadowFilter-p.4" filterUnits="userSpaceOnUse"><feGaussianBlur in="SourceAlpha" stdDeviation="2.0" result="blur"/><feComponentTransfer in="blur" color-interpolation-filters="sRGB"><feFuncR type="linear" slope="0" intercept="0.0"/><feFuncG type="linear" slope="0" intercept="0.0"/><feFuncB type="linear" slope="0" intercept="0.0"/><feFuncA type="linear" slope="0.1" intercept="0"/></feComponentTransfer></filter></defs><g id="p.4"><path fill="#000000" fill-opacity="0.0" d="m791.5266 398.0529l41.606323 17.700806" fill-rule="evenodd"/><path stroke="#fff2cc" stroke-width="4.0" stroke-linejoin="round" stroke-linecap="butt" d="m791.5266 398.0529l41.606323 17.700806" fill-rule="evenodd"/></g><g filter="url(#shadowFilter-p.5)"><use xlink:href="#p.5" transform="matrix(1.0 0.0 0.0 1.0 0.0 2.0)"/></g><defs><filter id="shadowFilter-p.5" filterUnits="userSpaceOnUse"><feGaussianBlur in="SourceAlpha" stdDeviation="2.0" result="blur"/><feComponentTransfer in="blur" color-interpolation-filters="sRGB"><feFuncR type="linear" slope="0" intercept="0.0"/><feFuncG type="linear" slope="0" intercept="0.0"/><feFuncB type="linear" slope="0" intercept="0.0"/><feFuncA type="linear" slope="0.1" intercept="0"/></feComponentTransfer></filter></defs><g id="p.5"><path fill="#000000" fill-opacity="0.0" d="m756.25366 399.4046l57.921265 26.393707" fill-rule="evenodd"/><path stroke="#fff2cc" stroke-width="4.0" stroke-linejoin="round" stroke-linecap="butt" d="m756.25366 399.4046l57.921265 26.393707" fill-rule="evenodd"/></g><g filter="url(#shadowFilter-p.6)"><use xlink:href="#p.6" transform="matrix(1.0 0.0 0.0 1.0 0.0 2.0)"/></g><defs><filter id="shadowFilter-p.6" filterUnits="userSpaceOnUse"><feGaussianBlur in="SourceAlpha" stdDeviation="2.0" result="blur"/><feComponentTransfer in="blur" color-interpolation-filters="sRGB"><feFuncR type="linear" slope="0" intercept="0.0"/><feFuncG type="linear" slope="0" intercept="0.0"/><feFuncB type="linear" slope="0" intercept="0.0"/><feFuncA type="linear" slope="0.1" intercept="0"/></feComponentTransfer></filter></defs><g id="p.6"><path fill="#000000" fill-opacity="0.0" d="m757.47455 258.08398l166.58264 67.275604l-25.66925 63.55905l-166.5827 -67.275604z" fill-rule="evenodd"/><path fill="#fff2cc" d="m792.46075 302.03253q-0.62298584 -0.2515869 -0.88793945 -0.84729004q-0.2446289 -0.6043091 0.007019043 -1.2272949l7.7703857 -19.240143q0.26330566 -0.65197754 0.84729004 -0.88793945q0.6043701 -0.2446289 1.227356 0.006958008q0.65197754 0.26330566 0.88793945 0.84729004q0.25628662 0.5753479 -0.007019043 1.2273254l-3.2941895 8.156769l13.198608 5.330353l3.2942505 -8.156769q0.26330566 -0.651947 0.84729004 -0.88793945q0.58984375 -0.25048828 1.227356 0.0069885254q0.6519165 0.26327515 0.8734131 0.84143066q0.24188232 0.5694885 -0.02142334 1.2214661l-7.770447 19.240112q-0.2515869 0.62298584 -0.8328247 0.8937988q-0.56085205 0.2621765 -1.2128296 -0.0011291504q-0.6374512 -0.2574463 -0.88793945 -0.8472595q-0.2446289 -0.6043396 0.007019043 -1.2273254l3.4229126 -8.475525l-13.198608 -5.330353l-3.4229736 8.475494q-0.2515869 0.62298584 -0.84729004 0.88797q-0.5753784 0.25631714 -1.227356 -0.0069885254zm33.42163 13.834564q-2.4920044 -1.0063782 -4.2388916 -2.68927q-1.7324219 -1.677002 -2.6103516 -3.8009338q-0.87786865 -2.1239014 -0.861145 -4.543701q0.03125 -2.4139404 1.0435181 -4.9203796q1.0122681 -2.5064087 2.6603394 -4.2505493q1.6625366 -1.7382812 3.769165 -2.6568604q2.1066895 -0.9185791 4.5178223 -0.9221802q2.4256592 0.0022583008 4.9176636 1.0086365q2.5064087 1.0122681 4.224365 2.6834106q1.7324219 1.6770325 2.624817 3.8067932q0.892395 2.1297607 0.8670044 4.5292053q-0.010925293 2.405304 -1.0231934 4.911743q-1.0122681 2.5064392 -2.680664 4.2592163q-1.6539307 1.758606 -3.7750244 2.6713257q-2.1211548 0.91275024 -4.5323486 0.9163513q-2.3966675 0.009429932 -4.903076 -1.0028076zm1.0824585 -2.6802979q1.8544922 0.7489624 3.6738281 0.7085571q1.819397 -0.040374756 3.4234009 -0.7575073q1.6243896 -0.72579956 2.8765259 -2.0737305q1.2521362 -1.3479309 1.9952393 -3.1879272q0.7489624 -1.8544617 0.7782593 -3.6794128q0.035095215 -1.8394165 -0.63549805 -3.4751892q-0.65026855 -1.6444092 -1.9371948 -2.9224548q-1.2810669 -1.292511 -3.135559 -2.0414734q-1.8399658 -0.7430725 -3.6593628 -0.70269775q-1.8135376 0.025878906 -3.4234009 0.75753784q-1.5895386 0.72299194 -2.8561401 2.0650635q-1.2608032 1.3276062 -2.0097656 3.1820679q-0.743103 1.8399963 -0.7637329 3.6852722q-0.020629883 1.8452759 0.6151123 3.4838562q0.6561279 1.6299133 1.9371948 2.9224243q1.2810669 1.2925415 3.1210938 2.035614zm16.405884 9.406067q-0.62298584 -0.2515869 -0.8734741 -0.84143066q-0.23010254 -0.5984802 0.021484375 -1.2214661l7.7703857 -19.240143q0.25164795 -0.62298584 0.8414917 -0.8734436q0.61016846 -0.25912476 1.2041626 -0.019226074q0.62298584 0.25161743 0.86761475 0.8559265q0.2649536 0.5957031 0.013366699 1.218689l-7.173584 17.76236l10.301025 4.1601257q0.62298584 0.25161743 0.86761475 0.8559265q0.2649536 0.5957031 0.013305664 1.218689q-0.2515869 0.62298584 -0.8617554 0.8820801q-0.58984375 0.25048828 -1.2128296 -0.0011291504l-11.778809 -4.756958zm19.753967 7.977783q-0.5940552 -0.23989868 -0.8590088 -0.8356018q-0.2446289 -0.6043091 0.007019043 -1.2272949l2.6740112 -6.6210327l-2.8289185 -14.859283q-0.11645508 -0.75476074 0.18115234 -1.2412415q0.2975464 -0.4864502 0.8319702 -0.6413574q0.55474854 -0.1635437 1.0907593 0.052947998q0.4781494 0.19308472 0.6656494 0.5215759q0.2078247 0.31985474 0.30480957 0.83084106l2.5925903 14.359436l-1.1300659 -0.45639038l12.000244 -8.6008q0.37225342 -0.25411987 0.7467041 -0.30508423q0.3947754 -0.059631348 0.8439331 0.12176514q0.5215454 0.21063232 0.7084961 0.70739746q0.20727539 0.48815918 0.054626465 1.0331116q-0.15270996 0.5449829 -0.7227783 0.95510864l-12.412598 8.703888l-2.6740112 6.6210327q-0.2515869 0.62298584 -0.8617554 0.8821106q-0.58984375 0.25045776 -1.2128296 -0.0011291504z" fill-rule="nonzero"/><path fill="#fff2cc" d="m778.3803 332.065q-0.62298584 -0.2515869 -0.88793945 -0.84729004q-0.2446289 -0.6043091 0.006958008 -1.2272949l7.770447 -19.240143q0.26330566 -0.65197754 0.84729004 -0.88797q0.6043091 -0.24459839 1.2272949 0.0069885254l6.794922 2.7441711q1.9414062 0.7840576 3.1004639 2.1283875q1.1590576 1.3443604 1.4465332 3.0107727q0.30200195 1.6722717 -0.40014648 3.4108276q-0.56170654 1.3908691 -1.7714844 2.2166748q-1.2039185 0.8113098 -2.7711792 0.936676q1.7020874 1.2097778 2.2879639 3.0135498q0.6062622 1.7951355 -0.26556396 3.9538574q-0.789917 1.9559021 -2.3256836 3.0881958q-1.5357666 1.1322632 -3.5384521 1.3345337q-2.0027466 0.20223999 -4.1325073 -0.65786743l-7.388916 -2.9840698zm2.5778198 -2.1269531l5.911133 2.387268q1.3184204 0.5324402 2.4849854 0.48120117q1.1869507 -0.059906006 2.1088867 -0.7154541q0.9219971 -0.6555786 1.4486084 -1.9595032q0.49145508 -1.2170105 0.24822998 -2.242035q-0.24316406 -1.0250549 -1.0790405 -1.8344421q-0.8154907 -0.8180237 -2.1339111 -1.3504944l-5.911133 -2.3872375l-3.0777588 7.620697zm4.1835938 -10.358948l5.3171387 2.1473694q1.6226807 0.65530396 2.9672852 0.2883911q1.3649902 -0.37554932 2.0203247 -1.99823q0.6553345 -1.6226501 -0.07183838 -2.826294q-0.7127075 -1.1977844 -2.3353882 -1.8531189l-5.3170776 -2.1473389l-2.5804443 6.389221zm13.790405 20.785889q-0.62298584 -0.2515869 -0.88793945 -0.84729004q-0.2446289 -0.6043091 0.006958008 -1.2272949l7.770447 -19.240143q0.26330566 -0.65197754 0.84729004 -0.88793945q0.6043091 -0.2446289 1.2272949 0.006958008q0.65197754 0.26330566 0.88793945 0.84729004q0.25634766 0.5753479 -0.006958008 1.2273254l-7.770447 19.240143q-0.2515869 0.62298584 -0.84729004 0.88793945q-0.5753174 0.25631714 -1.2272949 -0.0069885254zm8.641418 3.4898987q-0.62298584 -0.2515869 -0.88793945 -0.84729004q-0.2446289 -0.6043091 0.006958008 -1.2272949l7.770447 -19.240143q0.26330566 -0.65197754 0.84729004 -0.88793945q0.6043091 -0.2446289 1.2272949 0.006958008l6.794922 2.7442017q1.9414062 0.7840271 3.1004639 2.1283875q1.1590576 1.3443298 1.4465332 3.0107422q0.30200195 1.6722717 -0.40014648 3.4108276q-0.56170654 1.3908691 -1.7714844 2.2166748q-1.2039185 0.8113098 -2.7711792 0.936676q1.7020874 1.2097778 2.2879639 3.0135498q0.6062622 1.795166 -0.26556396 3.9538574q-0.789917 1.9559021 -2.3256836 3.0881958q-1.5357666 1.1322937 -3.5384521 1.3345337q-2.0027466 0.20227051 -4.1325073 -0.65786743l-7.388916 -2.9840698zm2.5778198 -2.1269226l5.911133 2.3872375q1.3184204 0.5324707 2.4849854 0.48120117q1.1869507 -0.05987549 2.1088867 -0.7154541q0.9219971 -0.6555786 1.4486084 -1.9595032q0.49145508 -1.2170105 0.24822998 -2.242035q-0.24316406 -1.0250549 -1.0790405 -1.8344421q-0.8154907 -0.8180237 -2.1339111 -1.3504639l-5.911133 -2.387268l-3.0777588 7.6207275zm4.1835938 -10.358978l5.3171387 2.1473694q1.6226807 0.6553345 2.9672852 0.2883911q1.3649902 -0.37554932 2.0203247 -1.99823q0.6553345 -1.6226501 -0.07183838 -2.826294q-0.7127075 -1.1977844 -2.3353882 -1.8530884l-5.3170776 -2.1473694l-2.5804443 6.389221zm13.761414 20.7742q-0.62298584 -0.2515869 -0.8734741 -0.84143066q-0.23010254 -0.5984802 0.021484375 -1.2214661l7.770447 -19.240143q0.2515869 -0.62298584 0.84143066 -0.8734436q0.61016846 -0.25912476 1.2041626 -0.019226074q0.62298584 0.2515869 0.86761475 0.8559265q0.2649536 0.5956726 0.013366699 1.2186584l-7.173584 17.76236l10.301025 4.1601562q0.62298584 0.25161743 0.86761475 0.8559265q0.2649536 0.5956726 0.013366699 1.218689q-0.25164795 0.62298584 -0.8618164 0.8820801q-0.58984375 0.25045776 -1.2128296 -0.0011291504l-11.778809 -4.756958zm18.27832 7.3818054q-0.62298584 -0.2515869 -0.88793945 -0.84729004q-0.2446289 -0.6043091 0.006958008 -1.2272949l7.770447 -19.240143q0.26330566 -0.651947 0.84729004 -0.88793945q0.6043091 -0.2446289 1.2272949 0.0069885254l12.850952 5.1899414q0.65197754 0.26327515 0.88513184 0.81243896q0.25354004 0.54052734 0.001953125 1.1635132q-0.2399292 0.59402466 -0.7977295 0.80688477q-0.53741455 0.20419312 -1.1893921 -0.05908203l-11.373169 -4.5931396l-2.7910156 6.910797l8.156799 3.2941895q0.65197754 0.26330566 0.88513184 0.81243896q0.25354004 0.54052734 0.013671875 1.134552q-0.2399292 0.59399414 -0.80358887 0.8213501q-0.5432739 0.21871948 -1.1952515 -0.04458618l-8.156799 -3.2941895l-2.8729248 7.1136475l11.373108 4.593109q0.65197754 0.26330566 0.89105225 0.79797363q0.25933838 0.5260315 0.019470215 1.1200562q-0.2515869 0.62298584 -0.8152466 0.8503418q-0.54333496 0.21868896 -1.1953125 -0.0446167l-12.850891 -5.1899414z" fill-rule="nonzero"/></g><path fill="#000000" fill-opacity="0.2975" d="m436.22397 465.75586l229.98428 75.811035l130.14172 -394.83466l-229.98425 -75.81102z" fill-rule="evenodd"/><path fill="#0b5394" d="m682.83765 525.43146l-11.438477 49.03015c1.2634888 -5.4157104 -76.78613 -28.253967 -174.3287 -51.01062c-97.54257 -22.756714 -177.64069 -36.81433 -178.90414 -31.39862l11.438446 -49.03015l0 0c1.2634583 -5.415741 81.36157 8.641907 178.90414 31.39859c97.54254 22.756683 175.59216 45.59494 174.32874 51.01065z" fill-rule="evenodd"/><path fill="#0b5394" d="m783.9022 92.21438l-11.438477 49.03016c1.2634888 -5.4157257 -76.786194 -28.253975 -174.32874 -51.010666c-97.54257 -22.756691 -177.64066 -36.814327 -178.90411 -31.398605l11.438446 -49.030163l0 0c1.2634583 -5.415722 81.36154 8.641912 178.90414 31.398605c97.54254 22.756691 175.59216 45.594944 174.32874 51.01067z" fill-rule="evenodd"/><path fill="#0b5394" d="m423.4021 40.954983l353.24487 82.41206l-98.71063 423.12677l-353.24484 -82.41208z" fill-rule="evenodd"/><path fill="#ffdab7" d="m675.757 518.68097l-11.21637 48.078186c1.2389526 -5.310547 -75.29529 -27.705383 -170.94403 -50.020264c-95.64871 -22.31485 -174.19168 -36.09955 -175.4306 -30.78897l11.21637 -48.078217l0 0c1.2389221 -5.3105774 79.78189 8.474121 175.4306 30.78897c95.64874 22.31488 172.18298 44.709686 170.94403 50.020294z" fill-rule="evenodd"/><path fill="#ffdab7" d="m774.8594 93.87501l-11.21637 48.07821c1.2388916 -5.310562 -75.29535 -27.705406 -170.94403 -50.020264c-95.64874 -22.314857 -174.19171 -36.099552 -175.43063 -30.788979l11.21637 -48.078217l0 0c1.2389221 -5.3105726 79.78189 8.474123 175.43063 30.78898c95.64868 22.314861 172.18292 44.709698 170.94403 50.020267z" fill-rule="evenodd"/><path fill="#ffdab7" d="m421.35858 43.610847l346.3864 80.81199l-96.79407 414.9115l-346.38644 -80.81198z" fill-rule="evenodd"/><path fill="#ffdab7" d="m743.4661 56.47908l19.9292 8.331345l11.812866 28.349068l-23.538391 58.05433l-39.8584 -16.662674z" fill-rule="evenodd"/><path fill="#ffdab7" d="m307.62784 451.92596l32.379883 -11.123688l10.476715 33.921753l-32.379913 11.123718z" fill-rule="evenodd"/><path fill="#0b5394" d="m667.072 490.60144l-11.438171 49.028503c1.2634277 -5.4155273 -76.79022 -28.253479 -174.33774 -51.00995c-97.547485 -22.7565 -177.64957 -36.814117 -178.913 -31.39856l11.438202 -49.028534l0 0c1.2634277 -5.4155273 81.36551 8.64209 178.913 31.39856c97.547485 22.7565 175.60114 45.59445 174.3377 51.00998z" fill-rule="evenodd"/><path fill="#0b5394" d="m768.1344 57.398884l-11.438171 49.028515c1.2634277 -5.4155426 -76.79022 -28.253479 -174.3377 -51.009968c-97.547516 -22.756485 -177.6496 -36.8141 -178.91302 -31.398558l11.438202 -49.02852l0 0c1.2634277 -5.415539 81.36551 8.642075 178.913 31.398561c97.547485 22.756485 175.60114 45.594425 174.3377 51.009968z" fill-rule="evenodd"/><path fill="#0b5394" d="m407.6166 6.1391883l353.26273 82.41132l-98.708496 423.11258l-353.2627 -82.411316z" fill-rule="evenodd"/><path fill="#3d85c6" d="m654.586 474.80087l-10.429382 44.703033c1.1519775 -4.937744 -70.40857 -25.85199 -159.83496 -46.713226c-89.42639 -20.861267 -162.8547 -33.769806 -164.00668 -28.832031l10.429413 -44.703064l0 0c1.152008 -4.9377747 74.58032 7.970764 164.00671 28.832031c89.42639 20.861267 160.98694 41.775482 159.8349 46.713257z" fill-rule="evenodd"/><path fill="#3d85c6" d="m749.1444 70.394394l-10.713196 45.921486c1.1833496 -5.072342 -70.36847 -26.100372 -159.81543 -46.967407c-89.44699 -20.867039 -162.91739 -33.67116 -164.10074 -28.598816l10.713196 -45.92149l0 0c1.1833496 -5.0723476 74.65375 7.731777 164.10074 28.598816c89.44696 20.867037 160.99878 41.895065 159.81543 46.967415z" fill-rule="evenodd"/><path fill="#3d85c6" d="m420.80005 13.417226l323.86273 75.55272l-96.79199 414.8976l-323.86276 -75.552734z" fill-rule="evenodd"/><path fill="#000000" fill-opacity="0.0" d="m453.06296 -14.354727l-110.4686 473.52216" fill-rule="evenodd"/><path stroke="#0b5394" stroke-width="8.0" stroke-linejoin="round" stroke-linecap="butt" d="m453.06296 -14.354727l-110.4686 473.52216" fill-rule="evenodd"/><path fill="#498ecd" d="m348.69977 451.64566l106.456696 -459.74802l189.51181 528.25195z" fill-rule="evenodd"/><g filter="url(#shadowFilter-p.7)"><use xlink:href="#p.7" transform="matrix(1.0 0.0 0.0 1.0 0.0 2.0)"/></g><defs><filter id="shadowFilter-p.7" filterUnits="userSpaceOnUse"><feGaussianBlur in="SourceAlpha" stdDeviation="2.0" result="blur"/><feComponentTransfer in="blur" color-interpolation-filters="sRGB"><feFuncR type="linear" slope="0" intercept="0.0"/><feFuncG type="linear" slope="0" intercept="0.0"/><feFuncB type="linear" slope="0" intercept="0.0"/><feFuncA type="linear" slope="0.2" intercept="0"/></feComponentTransfer></filter></defs><g id="p.7"><path fill="#000000" fill-opacity="0.0" d="m495.94135 49.99051l188.37439 43.94777" fill-rule="evenodd"/><path stroke="#fff2cc" stroke-width="8.0" stroke-linejoin="round" stroke-linecap="butt" d="m495.94135 49.99051l188.37439 43.94777" fill-rule="evenodd"/></g><g filter="url(#shadowFilter-p.8)"><use xlink:href="#p.8" transform="matrix(1.0 0.0 0.0 1.0 0.0 2.0)"/></g><defs><filter id="shadowFilter-p.8" filterUnits="userSpaceOnUse"><feGaussianBlur in="SourceAlpha" stdDeviation="2.0" result="blur"/><feComponentTransfer in="blur" color-interpolation-filters="sRGB"><feFuncR type="linear" slope="0" intercept="0.0"/><feFuncG type="linear" slope="0" intercept="0.0"/><feFuncB type="linear" slope="0" intercept="0.0"/><feFuncA type="linear" slope="0.2" intercept="0"/></feComponentTransfer></filter></defs><g id="p.8"><path fill="#000000" fill-opacity="0.0" d="m463.26236 190.07024l188.37442 43.94777" fill-rule="evenodd"/><path stroke="#fff2cc" stroke-width="8.0" stroke-linejoin="round" stroke-linecap="butt" d="m463.26236 190.07024l188.37442 43.94777" fill-rule="evenodd"/></g><g filter="url(#shadowFilter-p.9)"><use xlink:href="#p.9" transform="matrix(1.0 0.0 0.0 1.0 0.0 2.0)"/></g><defs><filter id="shadowFilter-p.9" filterUnits="userSpaceOnUse"><feGaussianBlur in="SourceAlpha" stdDeviation="2.0" result="blur"/><feComponentTransfer in="blur" color-interpolation-filters="sRGB"><feFuncR type="linear" slope="0" intercept="0.0"/><feFuncG type="linear" slope="0" intercept="0.0"/><feFuncB type="linear" slope="0" intercept="0.0"/><feFuncA type="linear" slope="0.2" intercept="0"/></feComponentTransfer></filter></defs><g id="p.9"><path fill="#000000" fill-opacity="0.0" d="m494.39835 56.675575l188.37442 43.94777l-29.402527 126.03504l-188.37442 -43.947784z" fill-rule="evenodd"/><path fill="#fff2cc" d="m561.9875 105.17779q-0.5477905 -0.12779236 -0.84295654 -0.58174133q-0.27648926 -0.4656067 -0.15222168 -0.9981842l4.195862 -17.98581l2.5715942 0.5999527l-4.195862 17.985802q-0.12426758 0.5325775 -0.5934448 0.82424164q-0.45037842 0.27999115 -0.9829712 0.15573883zm-2.678833 -18.434464q-0.517334 -0.12070465 -0.7739868 -0.5335617q-0.25665283 -0.41286469 -0.13598633 -0.93022156q0.12072754 -0.5173569 0.53356934 -0.77401733q0.4128418 -0.25666046 0.9301758 -0.13596344l13.192627 3.077835q0.517334 0.12070465 0.77404785 0.5335617q0.25665283 0.41286469 0.1359253 0.93022156q-0.120666504 0.5173569 -0.5335083 0.77401733q-0.41290283 0.25666046 -0.9302368 0.13596344l-13.192627 -3.077835zm14.554993 21.20517q-0.5325928 -0.12425232 -0.8278198 -0.57819366q-0.27642822 -0.46561432 -0.15216064 -0.9981842l3.897644 -16.707634q0.13134766 -0.56300354 0.57818604 -0.8277817q0.4656372 -0.27644348 0.99823 -0.15219879q0.57818604 0.13490295 0.84295654 0.58174133q0.28356934 0.43518066 0.15222168 0.99819183l-1.6542358 7.090851l11.442749 2.6695862l1.6542358 -7.090851q0.13128662 -0.56301117 0.578125 -0.8277893q0.45043945 -0.27999115 0.99823 -0.15219116q0.5629883 0.13134766 0.8277588 0.57819366q0.26831055 0.43162537 0.13696289 0.9946289l-3.897644 16.707634q-0.12426758 0.5325699 -0.5629883 0.831337q-0.43518066 0.28353882 -0.99816895 0.15219116q-0.5477905 -0.12779999 -0.8278198 -0.57819366q-0.27642822 -0.4656067 -0.15216064 -0.9981842l1.7145386 -7.349533l-11.442688 -2.6695862l-1.7145996 7.349533q-0.12420654 0.5325775 -0.57818604 0.8277817q-0.43518066 0.28354645 -1.0133667 0.14865112zm21.483887 5.012192q-0.5325928 -0.12424469 -0.8278198 -0.57819366q-0.27642822 -0.4656067 -0.15216064 -0.9981842l3.897705 -16.707626q0.13134766 -0.56301117 0.57818604 -0.8277893q0.46557617 -0.27644348 0.99816895 -0.15219116l11.153564 2.6021347q0.5630493 0.13134766 0.8348999 0.54776q0.27191162 0.41641235 0.14764404 0.94898987q-0.120666504 0.5173569 -0.5487671 0.77046967q-0.4244995 0.23789215 -0.9875488 0.106544495l-9.860168 -2.3003922l-1.3986206 5.99527l7.0755615 1.6507416q0.5630493 0.13134766 0.8348999 0.54776q0.27545166 0.40119934 0.15472412 0.9185562q-0.120666504 0.5173569 -0.5487671 0.77046967q-0.42803955 0.2531128 -0.99102783 0.12175751l-7.0756226 -1.6507416l-1.4376831 6.162651l9.8602295 2.3003922q0.5629883 0.13134766 0.83483887 0.54776q0.27545166 0.4011917 0.15478516 0.9185486q-0.12426758 0.5325775 -0.55236816 0.7856903q-0.42803955 0.2531128 -0.99102783 0.12176514l-11.1536255 -2.6021423z" fill-rule="nonzero"/><path fill="#fff2cc" d="m539.5042 128.02716q-0.5325928 -0.12425232 -0.8278198 -0.5782013q-0.27642822 -0.4656067 -0.15216064 -0.9981842l3.897644 -16.707626q0.13134766 -0.56301117 0.57818604 -0.8277893q0.4656372 -0.27644348 0.99823 -0.15219116l5.9039307 1.3773956q1.6738281 0.3904953 2.7841187 1.339447q1.1255493 0.952507 1.5861206 2.279358q0.46063232 1.3268433 0.109191895 2.8332672q-0.28399658 1.2173157 -1.1654663 2.0385132q-0.88153076 0.82120514 -2.1541138 1.1179657q1.5358887 0.77547455 2.255188 2.162674q0.7192383 1.3871918 0.2826538 3.258812q-0.397583 1.7042389 -1.5093384 2.8246994q-1.1117554 1.1204681 -2.7196045 1.5475922q-1.604248 0.41189575 -3.4454346 -0.01763916l-6.4213257 -1.4980927zm1.847168 -2.0720215l5.1279297 1.1963501q1.1259766 0.2626953 2.0820923 0.08463287q0.9595947 -0.19327545 1.6240234 -0.8404999q0.6831665 -0.6588898 0.94940186 -1.8001175q0.24493408 -1.0499344 -0.097473145 -1.8518219q-0.3236084 -0.81355286 -1.109314 -1.3658829q-0.7821045 -0.567543 -1.9081421 -0.83023834l-5.1279297 -1.1963501l-1.5405884 6.6039276zm2.0943604 -8.977684l4.6105957 1.0756454q1.3999023 0.32659912 2.4573975 -0.1486969q1.0727539 -0.4717331 1.402832 -1.8868637q0.32659912 -1.39991 -0.43017578 -2.2824326q-0.7380371 -0.8941879 -2.1379395 -1.220787l-4.6105347 -1.0756454l-1.2921753 5.53878zm20.965027 17.117119q-2.1607666 -0.5041046 -3.8046265 -1.6417236q-1.6251831 -1.1492767 -2.6097412 -2.7748566q-0.9845581 -1.6255798 -1.2772827 -3.6031876q-0.2927246 -1.9776001 0.21490479 -4.153549q0.5040283 -2.1607285 1.6381226 -3.789421q1.1375732 -1.6439056 2.7398071 -2.665985q1.6022339 -1.0220795 3.5645752 -1.3183517q1.9811401 -0.30793762 4.1419067 0.19615936q2.1759033 0.50764465 3.7858276 1.6533813q1.6287231 1.1340714 2.628479 2.7631989q0.99975586 1.6291275 1.2925415 3.6067276q0.29626465 1.9623871 -0.2078247 4.123123q-0.5076294 2.1759415 -1.6452026 3.819847q-1.1375732 1.6439056 -2.755005 2.6624298q-1.6174927 1.0185394 -3.583374 1.3300323q-1.9472046 0.29981995 -4.123108 -0.2078247zm0.5395508 -2.3128967q1.612915 0.376297 3.086853 0.11047363q1.473938 -0.26582336 2.7008667 -1.0545807q1.2304688 -0.80397034 2.0825195 -2.0491943q0.8555908 -1.2604446 1.2318726 -2.8733902q0.3727417 -1.5977173 0.16320801 -3.1066666q-0.20953369 -1.5089417 -0.9608154 -2.7591934q-0.7512207 -1.2502441 -1.9589233 -2.1256561q-1.2041016 -0.8906174 -2.8170776 -1.2669144q-1.5977173 -0.37274933 -3.086853 -0.11047363q-1.470398 0.25061035 -2.6820679 1.0429077q-1.2116699 0.792305 -2.0825195 2.0491943q-0.8555908 1.2604446 -1.2283325 2.8581696q-0.37628174 1.6129456 -0.16674805 3.1218872q0.22833252 1.4972763 0.9607544 2.7591858q0.73602295 1.2467041 1.9401855 2.137329q1.2193604 0.89416504 2.8170776 1.266922zm21.684204 7.497696q-2.1607056 -0.50408936 -3.8046265 -1.6417084q-1.6251221 -1.149292 -2.6096802 -2.7748718q-0.9845581 -1.6255646 -1.2773438 -3.60318q-0.2927246 -1.9776001 0.21490479 -4.153549q0.50408936 -2.1607285 1.6381226 -3.7894135q1.1375732 -1.6439056 2.7398071 -2.665985q1.6022339 -1.0220795 3.5646362 -1.3183594q1.9811401 -0.30793762 4.1418457 0.19615936q2.1759644 0.5076523 3.7858887 1.653389q1.6286621 1.1340637 2.628418 2.7631912q0.9998169 1.6291275 1.2925415 3.6067352q0.29626465 1.9623795 -0.20776367 4.1231155q-0.5076294 2.175949 -1.6452637 3.8198547q-1.1375732 1.6439056 -2.755005 2.6624298q-1.6174316 1.0185394 -3.583374 1.3300171q-1.9471436 0.2998352 -4.123108 -0.2078247zm0.5395508 -2.3128967q1.6129761 0.37631226 3.086914 0.11047363q1.473938 -0.26582336 2.7008057 -1.0545654q1.2304688 -0.80397034 2.0825195 -2.0491943q0.8555908 -1.2604523 1.2318726 -2.8733978q0.3727417 -1.5977173 0.16320801 -3.106659q-0.20953369 -1.5089493 -0.9607544 -2.7591934q-0.7512207 -1.2502518 -1.9589233 -2.1256561q-1.2041626 -0.890625 -2.8170776 -1.266922q-1.5977173 -0.37274933 -3.086914 -0.11047363q-1.4703369 0.25061035 -2.6820679 1.0429077q-1.2116699 0.792305 -2.0825195 2.049202q-0.8555908 1.2604446 -1.2283325 2.8581696q-0.37628174 1.6129303 -0.16668701 3.1218872q0.22827148 1.4972687 0.9607544 2.7591858q0.73602295 1.2467041 1.9401245 2.137329q1.2193604 0.89416504 2.8170776 1.2669067zm14.611023 5.5908203q-0.517334 -0.12069702 -0.81256104 -0.574646q-0.291687 -0.469162 -0.16741943 -1.0017242l3.897705 -16.707634q0.12426758 -0.5325775 0.58984375 -0.809021q0.46917725 -0.2916565 0.98651123 -0.17095947q0.5477905 0.12779999 0.82421875 0.5934067q0.29522705 0.45394897 0.17102051 0.98651886l-1.7287598 7.4103928l10.062195 -6.2684174q0.37176514 -0.21811676 0.6400757 -0.2678299q0.2718506 -0.06493378 0.54577637 -0.0010299683q0.6086426 0.14199829 0.79382324 0.5863037q0.18865967 0.42910004 -0.0045776367 0.9134903q-0.19317627 0.48439026 -0.6882324 0.8181534l-7.7575073 4.8486633l4.387268 10.217102q0.18969727 0.493515 0.030456543 0.9697876q-0.15570068 0.46105957 -0.53808594 0.724823q-0.36724854 0.26731873 -0.86938477 0.15016174q-0.6847534 -0.15974426 -0.92211914 -0.79273987l-4.2802734 -9.919373l-2.18042 1.3685303l-1.3879395 5.9496155q-0.12426758 0.5325775 -0.5934448 0.824234q-0.45037842 0.27999878 -0.99816895 0.15219116z" fill-rule="nonzero"/><path fill="#fff2cc" d="m561.1548 161.42967q-2.1607056 -0.50408936 -3.8046265 -1.6417084q-1.6251831 -1.149292 -2.6097412 -2.7748718q-0.9845581 -1.6255798 -1.2772827 -3.60318q-0.2927246 -1.9776001 0.21490479 -4.153549q0.50408936 -2.160736 1.6381226 -3.7894135q1.1375732 -1.6439056 2.7398071 -2.665985q1.6022339 -1.0220795 3.5645752 -1.3183594q1.9811401 -0.30793762 4.1419067 0.19615173q2.1759033 0.5076599 3.7858276 1.6533966q1.6287231 1.1340637 2.628479 2.7631836q0.9998169 1.6291351 1.2925415 3.6067352q0.29626465 1.9623871 -0.20776367 4.123123q-0.5076294 2.175949 -1.6452637 3.8198547q-1.1375732 1.6439056 -2.755005 2.6624298q-1.6174927 1.0185242 -3.583374 1.3300171q-1.9471436 0.29981995 -4.123108 -0.2078247zm0.5395508 -2.3128967q1.6129761 0.376297 3.086914 0.11047363q1.473938 -0.26582336 2.7008057 -1.0545807q1.2304688 -0.8039551 2.0825195 -2.0491943q0.8555908 -1.260437 1.2318726 -2.8733826q0.3727417 -1.5977173 0.16320801 -3.106659q-0.20953369 -1.5089569 -0.9607544 -2.759201q-0.7512207 -1.2502441 -1.9589233 -2.1256561q-1.2041626 -0.890625 -2.8171387 -1.266922q-1.5977173 -0.3727417 -3.086853 -0.11047363q-1.470398 0.25061035 -2.6820679 1.0429077q-1.2116699 0.7923126 -2.0825195 2.0492096q-0.8555908 1.260437 -1.2283325 2.8581696q-0.37628174 1.6129303 -0.16674805 3.121872q0.22833252 1.4972839 0.9608154 2.759201q0.7359619 1.2466888 1.9401245 2.1373138q1.2193604 0.8941803 2.8170776 1.266922zm13.05896 5.228714q-0.5325928 -0.12423706 -0.8277588 -0.57818604q-0.27648926 -0.4656067 -0.15222168 -0.9981842l3.897705 -16.707626q0.13134766 -0.56300354 0.57818604 -0.8277893q0.46557617 -0.27644348 0.99816895 -0.15219116l11.153564 2.602127q0.5630493 0.13136292 0.8348999 0.54776q0.27191162 0.41641235 0.14764404 0.94898987q-0.120666504 0.5173645 -0.5487671 0.7704773q-0.4244995 0.23788452 -0.9875488 0.106536865l-9.860168 -2.3003845l-1.3986206 5.99527l7.0756226 1.6507416q0.5629883 0.13134766 0.8196411 0.5442047q0.27545166 0.40119934 0.15472412 0.91856384q-0.120666504 0.51734924 -0.5487671 0.77046204q-0.4128418 0.2566681 -0.9758301 0.12532043l-7.0756226 -1.6507416l-1.6932983 7.2582245q-0.12420654 0.5325775 -0.5933838 0.824234q-0.45037842 0.27999878 -0.99816895 0.15219116z" fill-rule="nonzero"/><path fill="#fff2cc" d="m501.46927 175.34305q-0.53256226 -0.12425232 -0.8277893 -0.5782013q-0.27645874 -0.4656067 -0.15219116 -0.9981842l3.8976746 -16.707626q0.13134766 -0.56300354 0.57818604 -0.8277893q0.4656067 -0.27644348 0.99816895 -0.15219116q0.74560547 0.1739502 0.98150635 0.95098877l4.1045227 17.274948l-0.79122925 -0.18460083l11.142273 -13.717865q0.5553589 -0.59243774 1.2857666 -0.42204285q0.5477905 0.12780762 0.8277588 0.5782013q0.2987671 0.4387207 0.16741943 1.0017395l-3.897705 16.707626q-0.12420654 0.5325775 -0.60858154 0.8206787q-0.4656372 0.27644348 -0.9829712 0.15574646q-0.5325928 -0.12425232 -0.8278198 -0.57818604q-0.27642822 -0.46562195 -0.15216064 -0.9981842l3.0670166 -13.146988l0.5305176 -0.0045928955l-9.537537 11.653473q-0.5751343 0.5396881 -1.2598877 0.3799286q-0.8216858 -0.19169617 -1.0093689 -1.0377197l-3.405487 -14.287994l0.5305176 -0.0045776367l-3.0670166 13.146988q-0.12426758 0.53256226 -0.5934143 0.824234q-0.45037842 0.27998352 -0.99816895 0.15219116zm31.788422 7.6729584q-2.1607666 -0.5041046 -3.8046265 -1.6417236q-1.6251831 -1.149292 -2.6097412 -2.7748566q-0.9845581 -1.6255798 -1.2772827 -3.60318q-0.2927246 -1.9776154 0.21490479 -4.1535645q0.5040283 -2.1607208 1.6381226 -3.7894135q1.1375732 -1.6439056 2.7398071 -2.665985q1.6022339 -1.0220795 3.5645752 -1.3183594q1.9811401 -0.30793762 4.1419067 0.19616699q2.1759033 0.50764465 3.7858276 1.6533813q1.6287231 1.1340637 2.628479 2.7631989q0.99975586 1.6291199 1.2925415 3.6067352q0.29626465 1.9623871 -0.2078247 4.123108q-0.50756836 2.175949 -1.6452026 3.8198547q-1.1375732 1.6439056 -2.755005 2.6624298q-1.6174927 1.0185394 -3.583374 1.3300323q-1.9472046 0.29981995 -4.123108 -0.2078247zm0.5395508 -2.3128967q1.6129761 0.376297 3.086853 0.11047363q1.473938 -0.26582336 2.7008667 -1.0545807q1.2304688 -0.80397034 2.0825195 -2.0491943q0.8555908 -1.2604523 1.2318726 -2.8733826q0.3727417 -1.5977325 0.16320801 -3.1066742q-0.20953369 -1.5089417 -0.9607544 -2.7591858q-0.75128174 -1.2502594 -1.9589844 -2.1256561q-1.2041016 -0.890625 -2.8170776 -1.266922q-1.5977173 -0.37275696 -3.086853 -0.11047363q-1.470398 0.25061035 -2.6820679 1.0429077q-1.2116699 0.79229736 -2.0825195 2.0491943q-0.8555908 1.2604523 -1.2283325 2.8581696q-0.37628174 1.6129456 -0.16674805 3.1218872q0.22833252 1.4972687 0.9607544 2.7591858q0.73602295 1.2467041 1.9401855 2.137329q1.2193604 0.89416504 2.8170776 1.266922zm14.611023 5.590805q-0.5325928 -0.12423706 -0.8277588 -0.57818604q-0.27648926 -0.4656067 -0.15222168 -0.9981842l3.897705 -16.707626q0.13134766 -0.5630188 0.57818604 -0.8277893q0.46557617 -0.27644348 0.99816895 -0.15219116l4.4431763 1.0365906q1.8563843 0.43310547 3.105713 1.5428314q1.2492676 1.1097412 1.7246094 2.6486053q0.49053955 1.5424042 0.068115234 3.3531647q-0.39050293 1.6737976 -1.5022583 2.7942657q-1.0965576 1.1240082 -2.7008057 1.5359192q-1.600708 0.39668274 -3.4571533 -0.03640747l-3.1497803 -0.734848l-1.4341431 6.1474304q-0.12420654 0.5325775 -0.57818604 0.8277893q-0.43511963 0.28353882 -1.0133667 0.14863586zm10.240601 2.389145q-0.3499756 -0.08164978 -0.6071167 -0.28604126q-0.23840332 -0.21606445 -0.35809326 -0.59698486l-2.7747803 -8.188309l2.6622925 -0.13298035l2.5282593 7.4569244q0.27441406 0.8181305 -0.19421387 1.3826599q-0.4650879 0.54933167 -1.2563477 0.36473083zm-6.661133 -11.886765l3.1497803 0.734848q1.1412354 0.2662506 2.0927734 0.038986206q0.96673584 -0.2237091 1.6347046 -0.8861542q0.6831665 -0.6588745 0.9138794 -1.6479492q0.25561523 -1.095581 -0.051330566 -2.0496368q-0.29162598 -0.9505005 -1.0524902 -1.6093445q-0.7420654 -0.6705017 -1.8833008 -0.9367523l-3.1497803 -0.734848l-1.6542358 7.090851zm12.009338 13.134491q-0.5325928 -0.12425232 -0.8278198 -0.57818604q-0.27642822 -0.46562195 -0.15222168 -0.99819946l3.897705 -16.707626q0.13134766 -0.56300354 0.57818604 -0.82777405q0.4656372 -0.27645874 0.99816895 -0.15220642q0.74560547 0.1739502 0.98150635 0.95098877l4.104553 17.274948l-0.79125977 -0.18460083l11.142273 -13.717865q0.5553589 -0.59243774 1.2857666 -0.4220276q0.5477905 0.12779236 0.8277588 0.57818604q0.2987671 0.4387207 0.16741943 1.0017395l-3.897705 16.707626q-0.12420654 0.5325775 -0.60858154 0.8206787q-0.4656372 0.27644348 -0.9829712 0.15574646q-0.5325928 -0.12425232 -0.8277588 -0.57818604q-0.27648926 -0.4656067 -0.15222168 -0.9981842l3.0670166 -13.146988l0.5305786 -0.0045776367l-9.537598 11.653458q-0.5751343 0.5396881 -1.2598877 0.3799286q-0.8216553 -0.19169617 -1.0093994 -1.0377197l-3.4054565 -14.287994l0.5305176 -0.0045776367l-3.0670166 13.146988q-0.12426758 0.53256226 -0.5933838 0.824234q-0.45037842 0.27998352 -0.99816895 0.15219116zm31.788391 7.6729584q-2.1607056 -0.5041046 -3.8046265 -1.6417236q-1.6251831 -1.149292 -2.6097412 -2.7748566q-0.9845581 -1.6255798 -1.2772827 -3.60318q-0.2927246 -1.9776154 0.21490479 -4.153549q0.50408936 -2.160736 1.6381226 -3.7894287q1.1375732 -1.6439056 2.7398071 -2.665985q1.6022339 -1.0220795 3.5646362 -1.3183594q1.9811401 -0.30793762 4.1418457 0.19616699q2.1759033 0.50764465 3.7858887 1.6533813q1.6286621 1.1340637 2.628418 2.7631989q0.9998169 1.6291199 1.2925415 3.6067352q0.29626465 1.9623871 -0.20776367 4.123108q-0.5076294 2.175949 -1.6452637 3.8198547q-1.1375732 1.6439056 -2.755005 2.6624298q-1.6174316 1.0185394 -3.583374 1.3300323q-1.9471436 0.29981995 -4.123108 -0.2078247zm0.5395508 -2.3128967q1.6129761 0.376297 3.086914 0.11047363q1.473938 -0.26582336 2.7008057 -1.0545807q1.2304688 -0.80397034 2.0825195 -2.0491943q0.8555908 -1.2604523 1.2318726 -2.8733826q0.3727417 -1.5977325 0.16320801 -3.1066742q-0.20953369 -1.5089417 -0.9607544 -2.7591858q-0.7512207 -1.2502594 -1.9589233 -2.1256561q-1.2041626 -0.890625 -2.8170776 -1.266922q-1.5977783 -0.37275696 -3.086914 -0.11047363q-1.470398 0.25061035 -2.6820679 1.0429077q-1.2116699 0.79229736 -2.0825195 2.0491943q-0.8555908 1.2604523 -1.2283325 2.8581696q-0.37628174 1.6129456 -0.16674805 3.1218872q0.22833252 1.4972687 0.9608154 2.7591858q0.7359619 1.2467041 1.9401245 2.137329q1.2193604 0.89416504 2.8170776 1.266922zm14.595825 5.587265q-0.5477905 -0.12780762 -0.8278198 -0.5782013q-0.26123047 -0.4620514 -0.13696289 -0.9946289l3.897705 -16.707626q0.13134766 -0.56300354 0.56292725 -0.8313446q0.45043945 -0.27998352 0.99823 -0.15219116q0.5934448 0.13845825 0.8789673 0.7024536l7.405945 16.809723l3.1486816 -13.4969635q0.13134766 -0.56300354 0.57818604 -0.82777405q0.4656372 -0.27644348 1.0134277 -0.14865112q0.5629883 0.13134766 0.81256104 0.574646q0.26831055 0.43162537 0.13696289 0.9946289l-3.897644 16.707626q-0.12426758 0.5325775 -0.5629883 0.8313446q-0.4199829 0.28709412 -0.9829712 0.15574646q-0.258667 -0.06034851 -0.5229492 -0.23431396q-0.2454834 -0.18563843 -0.36315918 -0.43771362l-7.4211426 -16.813278l-3.1416016 13.466537q-0.12426758 0.5325775 -0.57818604 0.8277893q-0.43518066 0.28353882 -0.99816895 0.15219116z" fill-rule="nonzero"/></g><path fill="#0b5394" d="m312.7545 487.25378l-10.314392 -30.017426l0.8899231 -1.8987122l6.982544 -2.6540222l0 0l11.262878 32.7778l0 0l-6.9825134 2.6540222z" fill-rule="evenodd"/><path fill="#0b5394" d="m307.48776 471.9298l7.389618 1.119873l3.7679749 10.968048l-5.0081177 5.812439z" fill-rule="evenodd"/><g filter="url(#shadowFilter-p.10)"><use xlink:href="#p.10" transform="matrix(1.0 0.0 0.0 1.0 0.0 2.0)"/></g><defs><filter id="shadowFilter-p.10" filterUnits="userSpaceOnUse"><feGaussianBlur in="SourceAlpha" stdDeviation="2.0" result="blur"/><feComponentTransfer in="blur" color-interpolation-filters="sRGB"><feFuncR type="linear" slope="0" intercept="0.0"/><feFuncG type="linear" slope="0" intercept="0.0"/><feFuncB type="linear" slope="0" intercept="0.0"/><feFuncA type="linear" slope="0.2" intercept="0"/></feComponentTransfer></filter></defs><g id="p.10"><path fill="#000000" fill-opacity="0.0" d="m466.0022 219.37743l63.966858 13.797684" fill-rule="evenodd"/><path stroke="#fff2cc" stroke-width="4.0" stroke-linejoin="round" stroke-linecap="butt" d="m466.0022 219.37743l63.966858 13.797684" fill-rule="evenodd"/></g><g filter="url(#shadowFilter-p.11)"><use xlink:href="#p.11" transform="matrix(1.0 0.0 0.0 1.0 0.0 2.0)"/></g><defs><filter id="shadowFilter-p.11" filterUnits="userSpaceOnUse"><feGaussianBlur in="SourceAlpha" stdDeviation="2.0" result="blur"/><feComponentTransfer in="blur" color-interpolation-filters="sRGB"><feFuncR type="linear" slope="0" intercept="0.0"/><feFuncG type="linear" slope="0" intercept="0.0"/><feFuncB type="linear" slope="0" intercept="0.0"/><feFuncA type="linear" slope="0.2" intercept="0"/></feComponentTransfer></filter></defs><g id="p.11"><path fill="#000000" fill-opacity="0.0" d="m544.64374 237.20564l79.928955 18.069" fill-rule="evenodd"/><path stroke="#fff2cc" stroke-width="4.0" stroke-linejoin="round" stroke-linecap="butt" d="m544.64374 237.20564l79.928955 18.069" fill-rule="evenodd"/></g><g filter="url(#shadowFilter-p.12)"><use xlink:href="#p.12" transform="matrix(1.0 0.0 0.0 1.0 0.0 2.0)"/></g><defs><filter id="shadowFilter-p.12" filterUnits="userSpaceOnUse"><feGaussianBlur in="SourceAlpha" stdDeviation="2.0" result="blur"/><feComponentTransfer in="blur" color-interpolation-filters="sRGB"><feFuncR type="linear" slope="0" intercept="0.0"/><feFuncG type="linear" slope="0" intercept="0.0"/><feFuncB type="linear" slope="0" intercept="0.0"/><feFuncA type="linear" slope="0.2" intercept="0"/></feComponentTransfer></filter></defs><g id="p.12"><path fill="#000000" fill-opacity="0.0" d="m480.01205 237.738l38.695587 8.211761" fill-rule="evenodd"/><path stroke="#fff2cc" stroke-width="4.0" stroke-linejoin="round" stroke-linecap="butt" d="m480.01205 237.738l38.695587 8.211761" fill-rule="evenodd"/></g><g filter="url(#shadowFilter-p.13)"><use xlink:href="#p.13" transform="matrix(1.0 0.0 0.0 1.0 0.0 2.0)"/></g><defs><filter id="shadowFilter-p.13" filterUnits="userSpaceOnUse"><feGaussianBlur in="SourceAlpha" stdDeviation="2.0" result="blur"/><feComponentTransfer in="blur" color-interpolation-filters="sRGB"><feFuncR type="linear" slope="0" intercept="0.0"/><feFuncG type="linear" slope="0" intercept="0.0"/><feFuncB type="linear" slope="0" intercept="0.0"/><feFuncA type="linear" slope="0.2" intercept="0"/></feComponentTransfer></filter></defs><g id="p.13"><path fill="#000000" fill-opacity="0.0" d="m526.52325 247.80899l23.325317 5.0882263" fill-rule="evenodd"/><path stroke="#fff2cc" stroke-width="4.0" stroke-linejoin="round" stroke-linecap="butt" d="m526.52325 247.80899l23.325317 5.0882263" fill-rule="evenodd"/></g><g filter="url(#shadowFilter-p.14)"><use xlink:href="#p.14" transform="matrix(1.0 0.0 0.0 1.0 0.0 2.0)"/></g><defs><filter id="shadowFilter-p.14" filterUnits="userSpaceOnUse"><feGaussianBlur in="SourceAlpha" stdDeviation="2.0" result="blur"/><feComponentTransfer in="blur" color-interpolation-filters="sRGB"><feFuncR type="linear" slope="0" intercept="0.0"/><feFuncG type="linear" slope="0" intercept="0.0"/><feFuncB type="linear" slope="0" intercept="0.0"/><feFuncA type="linear" slope="0.2" intercept="0"/></feComponentTransfer></filter></defs><g id="p.14"><path fill="#000000" fill-opacity="0.0" d="m564.6677 255.82542l28.576416 6.7917023" fill-rule="evenodd"/><path stroke="#fff2cc" stroke-width="4.0" stroke-linejoin="round" stroke-linecap="butt" d="m564.6677 255.82542l28.576416 6.7917023" fill-rule="evenodd"/></g><path fill="#000000" fill-opacity="0.0" d="m456.42624 -18.542048l-110.456696 473.5433" fill-rule="evenodd"/><path stroke="#0b5394" stroke-width="8.0" stroke-linejoin="round" stroke-linecap="butt" d="m456.42624 -18.542048l-110.456696 473.5433" fill-rule="evenodd"/><path fill="#0b5394" d="m659.73694 522.1723l-11.438416 49.02643c1.2634277 -5.415283 -76.789 -28.248901 -174.33505 -51.000305c-97.54605 -22.751373 -177.64697 -36.805054 -178.9104 -31.38974l11.438416 -49.026398l0 0c1.2634583 -5.4153137 81.36438 8.638336 178.9104 31.38974c97.54605 22.751373 175.59848 45.58499 174.33505 51.000275z" fill-rule="evenodd"/></g></svg>