<svg version="1.1" viewBox="0.0 0.0 1280.0 455.0" fill="none" stroke="none" stroke-linecap="square" stroke-miterlimit="10" xmlns:xlink="http://www.w3.org/1999/xlink" xmlns="http://www.w3.org/2000/svg"><clipPath id="p.0"><path d="m0 0l1280.0 0l0 455.0l-1280.0 0l0 -455.0z" clip-rule="nonzero"/></clipPath><g clip-path="url(#p.0)"><path fill="#000000" fill-opacity="0.0" d="m0 0l1280.0 0l0 455.0l-1280.0 0z" fill-rule="evenodd"/><g filter="url(#shadowFilter-p.1)"><use xlink:href="#p.1" transform="matrix(1.0 0.0 0.0 1.0 0.0 2.0)"/></g><defs><filter id="shadowFilter-p.1" filterUnits="userSpaceOnUse"><feGaussianBlur in="SourceAlpha" stdDeviation="8.5" result="blur"/><feComponentTransfer in="blur" color-interpolation-filters="sRGB"><feFuncR type="linear" slope="0" intercept="0.0"/><feFuncG type="linear" slope="0" intercept="0.0"/><feFuncB type="linear" slope="0" intercept="0.0"/><feFuncA type="linear" slope="0.5" intercept="0"/></feComponentTransfer></filter></defs><g id="p.1"><path fill="#ffffff" d="m360.24146 336.5748l0 0c0 -13.8810425 11.252838 -25.13385 25.13388 -25.13385l0 0c6.6658936 0 13.058807 2.6480103 17.772308 7.3615417c4.7135315 4.713501 7.3615417 11.106384 7.3615417 17.772308l0 0c0 13.8810425 -11.252808 25.13385 -25.13385 25.13385l0 0c-13.8810425 0 -25.13388 -11.252808 -25.13388 -25.13385z" fill-rule="evenodd"/></g><g filter="url(#shadowFilter-p.2)"><use xlink:href="#p.2" transform="matrix(1.0 0.0 0.0 1.0 0.0 2.0)"/></g><defs><filter id="shadowFilter-p.2" filterUnits="userSpaceOnUse"><feGaussianBlur in="SourceAlpha" stdDeviation="8.5" result="blur"/><feComponentTransfer in="blur" color-interpolation-filters="sRGB"><feFuncR type="linear" slope="0" intercept="0.0"/><feFuncG type="linear" slope="0" intercept="0.0"/><feFuncB type="linear" slope="0" intercept="0.0"/><feFuncA type="linear" slope="0.5" intercept="0"/></feComponentTransfer></filter></defs><g id="p.2"><path fill="#ffffff" d="m483.7034 240.5748l0 0c0 -13.8810425 11.252838 -25.13385 25.13388 -25.13385l0 0c6.6658936 0 13.058777 2.6480255 17.772339 7.3615265c4.713501 4.713516 7.361511 11.106415 7.361511 17.772324l0 0c0 13.881058 -11.252808 25.13385 -25.13385 25.13385l0 0c-13.8810425 0 -25.13388 -11.252792 -25.13388 -25.13385z" fill-rule="evenodd"/></g><g filter="url(#shadowFilter-p.3)"><use xlink:href="#p.3" transform="matrix(1.0 0.0 0.0 1.0 0.0 2.0)"/></g><defs><filter id="shadowFilter-p.3" filterUnits="userSpaceOnUse"><feGaussianBlur in="SourceAlpha" stdDeviation="8.5" result="blur"/><feComponentTransfer in="blur" color-interpolation-filters="sRGB"><feFuncR type="linear" slope="0" intercept="0.0"/><feFuncG type="linear" slope="0" intercept="0.0"/><feFuncB type="linear" slope="0" intercept="0.0"/><feFuncA type="linear" slope="0.5" intercept="0"/></feComponentTransfer></filter></defs><g id="p.3"><path fill="#ffffff" d="m623.16534 400.5748l0 0c0 -13.8810425 11.252808 -25.13385 25.13385 -25.13385l0 0c6.6659546 0 13.058838 2.6480103 17.772339 7.3615417c4.713501 4.713501 7.361511 11.106384 7.361511 17.772308l0 0c0 13.8810425 -11.252808 25.13385 -25.13385 25.13385l0 0c-13.8810425 0 -25.13385 -11.252808 -25.13385 -25.13385z" fill-rule="evenodd"/></g><g filter="url(#shadowFilter-p.4)"><use xlink:href="#p.4" transform="matrix(1.0 0.0 0.0 1.0 0.0 2.0)"/></g><defs><filter id="shadowFilter-p.4" filterUnits="userSpaceOnUse"><feGaussianBlur in="SourceAlpha" stdDeviation="8.5" result="blur"/><feComponentTransfer in="blur" color-interpolation-filters="sRGB"><feFuncR type="linear" slope="0" intercept="0.0"/><feFuncG type="linear" slope="0" intercept="0.0"/><feFuncB type="linear" slope="0" intercept="0.0"/><feFuncA type="linear" slope="0.5" intercept="0"/></feComponentTransfer></filter></defs><g id="p.4"><path fill="#ffffff" d="m754.6273 304.5748l0 0c0 -13.8810425 11.252808 -25.13385 25.13385 -25.13385l0 0c6.6658936 0 13.058777 2.6480103 17.772278 7.3615417c4.713562 4.713501 7.3615723 11.106384 7.3615723 17.772308l0 0c0 13.8810425 -11.252808 25.13385 -25.13385 25.13385l0 0c-13.8810425 0 -25.13385 -11.252808 -25.13385 -25.13385z" fill-rule="evenodd"/></g><g filter="url(#shadowFilter-p.5)"><use xlink:href="#p.5" transform="matrix(1.0 0.0 0.0 1.0 0.0 2.0)"/></g><defs><filter id="shadowFilter-p.5" filterUnits="userSpaceOnUse"><feGaussianBlur in="SourceAlpha" stdDeviation="8.5" result="blur"/><feComponentTransfer in="blur" color-interpolation-filters="sRGB"><feFuncR type="linear" slope="0" intercept="0.0"/><feFuncG type="linear" slope="0" intercept="0.0"/><feFuncB type="linear" slope="0" intercept="0.0"/><feFuncA type="linear" slope="0.5" intercept="0"/></feComponentTransfer></filter></defs><g id="p.5"><path fill="#ffffff" d="m867.54333 64.57481l0 0c0 -13.88105 11.252808 -25.133862 25.13385 -25.133862l0 0c6.6658936 0 13.058777 2.6480255 17.772278 7.361538c4.713562 4.7135124 7.3615723 11.106407 7.3615723 17.772324l0 0c0 13.8810425 -11.252808 25.133858 -25.13385 25.133858l0 0c-13.8810425 0 -25.13385 -11.252815 -25.13385 -25.133858z" fill-rule="evenodd"/></g><g filter="url(#shadowFilter-p.6)"><use xlink:href="#p.6" transform="matrix(1.0 0.0 0.0 1.0 0.0 2.0)"/></g><defs><filter id="shadowFilter-p.6" filterUnits="userSpaceOnUse"><feGaussianBlur in="SourceAlpha" stdDeviation="8.5" result="blur"/><feComponentTransfer in="blur" color-interpolation-filters="sRGB"><feFuncR type="linear" slope="0" intercept="0.0"/><feFuncG type="linear" slope="0" intercept="0.0"/><feFuncB type="linear" slope="0" intercept="0.0"/><feFuncA type="linear" slope="0.5" intercept="0"/></feComponentTransfer></filter></defs><g id="p.6"><path fill="#000000" fill-opacity="0.0" d="m386.22308 338.06036l121.25986 -96.31496" fill-rule="evenodd"/><path stroke="#ffffff" stroke-width="24.0" stroke-linejoin="round" stroke-linecap="butt" d="m386.22308 338.06036l121.25986 -96.31496" fill-rule="evenodd"/></g><g filter="url(#shadowFilter-p.7)"><use xlink:href="#p.7" transform="matrix(1.0 0.0 0.0 1.0 0.0 2.0)"/></g><defs><filter id="shadowFilter-p.7" filterUnits="userSpaceOnUse"><feGaussianBlur in="SourceAlpha" stdDeviation="8.5" result="blur"/><feComponentTransfer in="blur" color-interpolation-filters="sRGB"><feFuncR type="linear" slope="0" intercept="0.0"/><feFuncG type="linear" slope="0" intercept="0.0"/><feFuncB type="linear" slope="0" intercept="0.0"/><feFuncA type="linear" slope="0.5" intercept="0"/></feComponentTransfer></filter></defs><g id="p.7"><path fill="#000000" fill-opacity="0.0" d="m510.33334 241.73753l139.11807 160.47243" fill-rule="evenodd"/><path stroke="#ffffff" stroke-width="24.0" stroke-linejoin="round" stroke-linecap="butt" d="m510.33334 241.73753l139.11807 160.47243" fill-rule="evenodd"/></g><g filter="url(#shadowFilter-p.8)"><use xlink:href="#p.8" transform="matrix(1.0 0.0 0.0 1.0 0.0 2.0)"/></g><defs><filter id="shadowFilter-p.8" filterUnits="userSpaceOnUse"><feGaussianBlur in="SourceAlpha" stdDeviation="8.5" result="blur"/><feComponentTransfer in="blur" color-interpolation-filters="sRGB"><feFuncR type="linear" slope="0" intercept="0.0"/><feFuncG type="linear" slope="0" intercept="0.0"/><feFuncB type="linear" slope="0" intercept="0.0"/><feFuncA type="linear" slope="0.5" intercept="0"/></feComponentTransfer></filter></defs><g id="p.8"><path fill="#000000" fill-opacity="0.0" d="m780.78217 303.79266l-132.40948 97.29132" fill-rule="evenodd"/><path stroke="#ffffff" stroke-width="24.0" stroke-linejoin="round" stroke-linecap="butt" d="m780.78217 303.79266l-132.40948 97.29132" fill-rule="evenodd"/></g><g filter="url(#shadowFilter-p.9)"><use xlink:href="#p.9" transform="matrix(1.0 0.0 0.0 1.0 0.0 2.0)"/></g><defs><filter id="shadowFilter-p.9" filterUnits="userSpaceOnUse"><feGaussianBlur in="SourceAlpha" stdDeviation="8.5" result="blur"/><feComponentTransfer in="blur" color-interpolation-filters="sRGB"><feFuncR type="linear" slope="0" intercept="0.0"/><feFuncG type="linear" slope="0" intercept="0.0"/><feFuncB type="linear" slope="0" intercept="0.0"/><feFuncA type="linear" slope="0.5" intercept="0"/></feComponentTransfer></filter></defs><g id="p.9"><path fill="#000000" fill-opacity="0.0" d="m893.7769 64.83465l-113.921265 239.874" fill-rule="evenodd"/><path stroke="#ffffff" stroke-width="24.0" stroke-linejoin="round" stroke-linecap="butt" d="m893.7769 64.83465l-113.921265 239.874" fill-rule="evenodd"/></g><path fill="#ffffff" d="m360.24146 337.33072l0 0c0 -13.8810425 11.252838 -25.13388 25.13388 -25.13388l0 0c6.6658936 0 13.058807 2.6480408 17.772308 7.3615417c4.7135315 4.7135315 7.3615417 11.106415 7.3615417 17.772339l0 0c0 13.8810425 -11.252808 25.13385 -25.13385 25.13385l0 0c-13.8810425 0 -25.13388 -11.252808 -25.13388 -25.13385z" fill-rule="evenodd"/><path fill="#ffffff" d="m483.82416 241.01575l0 0c0 -13.8810425 11.252808 -25.13385 25.13385 -25.13385l0 0c6.6658936 0 13.058777 2.6480103 17.772339 7.3615265c4.713501 4.713516 7.361511 11.106415 7.361511 17.772324l0 0c0 13.8810425 -11.252808 25.13385 -25.13385 25.13385l0 0c-13.8810425 0 -25.13385 -11.252808 -25.13385 -25.13385z" fill-rule="evenodd"/><path fill="#ffffff" d="m623.13385 400.5748l0 0c0 -13.8810425 11.252808 -25.13385 25.13385 -25.13385l0 0c6.6659546 0 13.058838 2.6480103 17.772339 7.3615417c4.713501 4.713501 7.361511 11.106384 7.361511 17.772308l0 0c0 13.8810425 -11.252808 25.13385 -25.13385 25.13385l0 0c-13.8810425 0 -25.13385 -11.252808 -25.13385 -25.13385z" fill-rule="evenodd"/><path fill="#ffffff" d="m754.7034 304.51706l0 0c0 -13.8810425 11.252808 -25.13385 25.13385 -25.13385l0 0c6.6658936 0 13.058777 2.6480103 17.772339 7.3615417c4.713501 4.713501 7.361511 11.106384 7.361511 17.772308l0 0c0 13.8810425 -11.252808 25.13385 -25.13385 25.13385l0 0c-13.8810425 0 -25.13385 -11.252808 -25.13385 -25.13385z" fill-rule="evenodd"/><path fill="#ffffff" d="m867.54333 64.57481l0 0c0 -13.88105 11.252808 -25.133862 25.13385 -25.133862l0 0c6.6658936 0 13.058777 2.6480255 17.772278 7.361538c4.713562 4.7135124 7.3615723 11.106407 7.3615723 17.772324l0 0c0 13.8810425 -11.252808 25.133858 -25.13385 25.133858l0 0c-13.8810425 0 -25.13385 -11.252815 -25.13385 -25.133858z" fill-rule="evenodd"/></g></svg>