<svg version="1.1" viewBox="0.0 0.0 1280.0 455.0" fill="none" stroke="none" stroke-linecap="square" stroke-miterlimit="10" xmlns:xlink="http://www.w3.org/1999/xlink" xmlns="http://www.w3.org/2000/svg"><clipPath id="p.0"><path d="m0 0l1280.0 0l0 455.0l-1280.0 0l0 -455.0z" clip-rule="nonzero"/></clipPath><g clip-path="url(#p.0)"><path fill="#000000" fill-opacity="0.0" d="m0 0l1280.0 0l0 455.0l-1280.0 0z" fill-rule="evenodd"/><path fill="#434343" d="m639.8497 108.864586l0 0c2.3569946 -0.11306763 4.357361 1.7060928 4.4678955 4.0632095l2.84375 60.629486c0.053100586 1.1319275 -0.3456421 2.2390594 -1.1084595 3.0778503c-0.7628174 0.8387909 -1.8272095 1.3405151 -2.9591064 1.3948059l0 0l0 0c-2.3569946 0.11306763 -4.3573 -1.7060852 -4.4678955 -4.063202l-2.843689 -60.629494c-0.1105957 -2.3571167 1.7105103 -4.3595886 4.067505 -4.4726562z" fill-rule="evenodd"/><path fill="#000000" d="m630.2021 81.391075l0 0c0 -8.132065 6.2680054 -14.724411 14.0 -14.724411l0 0c3.7130127 0 7.273987 1.5513229 9.899536 4.312683c2.6254883 2.7613602 4.100464 6.506569 4.100464 10.411728l0 0c0 8.132065 -6.2680054 14.724411 -14.0 14.724411l0 0c-7.7319946 0 -14.0 -6.592346 -14.0 -14.724411z" fill-rule="evenodd"/><path fill="#af6416" d="m502.89502 146.90027l4.75589 -19.023628l262.80313 0l4.7559204 19.023628z" fill-rule="evenodd"/><path stroke="#783f04" stroke-width="12.0" stroke-linejoin="round" stroke-linecap="butt" d="m502.89502 146.90027l4.75589 -19.023628l262.80313 0l4.7559204 19.023628z" fill-rule="evenodd"/><path fill="#af6416" d="m502.89502 146.91077l272.31494 0l0 50.267715l-272.31494 0z" fill-rule="evenodd"/><path stroke="#783f04" stroke-width="12.0" stroke-linejoin="round" stroke-linecap="butt" d="m502.89502 146.91077l272.31494 0l0 50.267715l-272.31494 0z" fill-rule="evenodd"/><path fill="#af6416" d="m819.1483 164.41208l-12.566956 50.267715l-333.16534 0l-12.566925 -50.267715z" fill-rule="evenodd"/><path stroke="#783f04" stroke-width="12.0" stroke-linejoin="round" stroke-linecap="butt" d="m819.1483 164.41208l-12.566956 50.267715l-333.16534 0l-12.566925 -50.267715z" fill-rule="evenodd"/><path fill="#af6416" d="m471.0525 183.70341l336.0 0l0 50.267715l-336.0 0z" fill-rule="evenodd"/><path stroke="#783f04" stroke-width="12.0" stroke-linejoin="round" stroke-linecap="butt" d="m471.0525 183.70341l336.0 0l0 50.267715l-336.0 0z" fill-rule="evenodd"/><path fill="#9b5d1c" d="m477.19946 189.69554l22.80066 25.291336l278.05225 0l22.80066 -25.291336z" fill-rule="evenodd"/><path fill="#af6416" d="m479.7139 220.49606l318.67715 0l0 248.22046l-318.67715 0z" fill-rule="evenodd"/><path stroke="#783f04" stroke-width="12.0" stroke-linejoin="round" stroke-linecap="butt" d="m479.7139 220.49606l318.67715 0l0 248.22046l-318.67715 0z" fill-rule="evenodd"/><path fill="#af6416" d="m568.97375 204.1181l140.15747 0l0 264.59842l-140.15747 0z" fill-rule="evenodd"/><path stroke="#783f04" stroke-width="12.0" stroke-linejoin="round" stroke-linecap="butt" d="m568.97375 204.1181l140.15747 0l0 264.59842l-140.15747 0z" fill-rule="evenodd"/><path fill="#9b5d1c" d="m714.9659 226.40683l0 236.0315l74.834656 -236.0315z" fill-rule="evenodd"/><path fill="#9b5d1c" d="m563.1391 226.40683l0 236.0315l-74.834625 -236.0315z" fill-rule="evenodd"/><path fill="#222222" d="m636.3438 82.80577l0 0c0 -4.5661316 3.5183105 -8.267715 7.8582764 -8.267715l0 0c2.0841675 0 4.082947 0.87106323 5.5566406 2.4215622c1.4736938 1.550499 2.3016357 3.6534195 2.3016357 5.8461533l0 0c0 4.566139 -3.5182495 8.267723 -7.8582764 8.267723l0 0c-4.339966 0 -7.8582764 -3.7015839 -7.8582764 -8.267723z" fill-rule="evenodd"/><path fill="#434343" d="m644.3333 80.53015l0 0c2.0438843 0.26961517 3.480896 2.144905 3.2096558 4.1885757l-3.6790771 27.71733c-0.13024902 0.98139954 -0.6451416 1.8711777 -1.4312744 2.4735794c-0.7861328 0.60240936 -1.7791748 0.8680954 -2.7606812 0.73861694l0 0l0 0c-2.0438843 -0.26961517 -3.480896 -2.144905 -3.2096558 -4.1885757l3.6790771 -27.71733c0.27130127 -2.043663 2.1480713 -3.4818192 4.1919556 -3.2121964z" fill-rule="evenodd"/><path fill="#b1dbe8" fill-opacity="0.6519" d="m0 0l1280.0 0l0 454.99213l-1280.0 0z" fill-rule="evenodd"/><g filter="url(#shadowFilter-p.1)"><use xlink:href="#p.1" transform="matrix(1.0 0.0 0.0 1.0 0.0 2.0)"/></g><defs><filter id="shadowFilter-p.1" filterUnits="userSpaceOnUse"><feGaussianBlur in="SourceAlpha" stdDeviation="8.5" result="blur"/><feComponentTransfer in="blur" color-interpolation-filters="sRGB"><feFuncR type="linear" slope="0" intercept="0.0"/><feFuncG type="linear" slope="0" intercept="0.0"/><feFuncB type="linear" slope="0" intercept="0.0"/><feFuncA type="linear" slope="0.5" intercept="0"/></feComponentTransfer></filter></defs><g id="p.1"><path fill="#ffffff" d="m360.24146 336.5748l0 0c0 -13.8810425 11.252838 -25.13385 25.13388 -25.13385l0 0c6.6658936 0 13.058807 2.6480103 17.772308 7.3615417c4.7135315 4.713501 7.3615417 11.106384 7.3615417 17.772308l0 0c0 13.8810425 -11.252808 25.13385 -25.13385 25.13385l0 0c-13.8810425 0 -25.13388 -11.252808 -25.13388 -25.13385z" fill-rule="evenodd"/></g><g filter="url(#shadowFilter-p.2)"><use xlink:href="#p.2" transform="matrix(1.0 0.0 0.0 1.0 0.0 2.0)"/></g><defs><filter id="shadowFilter-p.2" filterUnits="userSpaceOnUse"><feGaussianBlur in="SourceAlpha" stdDeviation="8.5" result="blur"/><feComponentTransfer in="blur" color-interpolation-filters="sRGB"><feFuncR type="linear" slope="0" intercept="0.0"/><feFuncG type="linear" slope="0" intercept="0.0"/><feFuncB type="linear" slope="0" intercept="0.0"/><feFuncA type="linear" slope="0.5" intercept="0"/></feComponentTransfer></filter></defs><g id="p.2"><path fill="#ffffff" d="m483.7034 240.5748l0 0c0 -13.8810425 11.252838 -25.13385 25.13388 -25.13385l0 0c6.6658936 0 13.058777 2.6480255 17.772339 7.3615265c4.713501 4.713516 7.361511 11.106415 7.361511 17.772324l0 0c0 13.881058 -11.252808 25.13385 -25.13385 25.13385l0 0c-13.8810425 0 -25.13388 -11.252792 -25.13388 -25.13385z" fill-rule="evenodd"/></g><g filter="url(#shadowFilter-p.3)"><use xlink:href="#p.3" transform="matrix(1.0 0.0 0.0 1.0 0.0 2.0)"/></g><defs><filter id="shadowFilter-p.3" filterUnits="userSpaceOnUse"><feGaussianBlur in="SourceAlpha" stdDeviation="8.5" result="blur"/><feComponentTransfer in="blur" color-interpolation-filters="sRGB"><feFuncR type="linear" slope="0" intercept="0.0"/><feFuncG type="linear" slope="0" intercept="0.0"/><feFuncB type="linear" slope="0" intercept="0.0"/><feFuncA type="linear" slope="0.5" intercept="0"/></feComponentTransfer></filter></defs><g id="p.3"><path fill="#ffffff" d="m623.16534 400.5748l0 0c0 -13.8810425 11.252808 -25.13385 25.13385 -25.13385l0 0c6.6659546 0 13.058838 2.6480103 17.772339 7.3615417c4.713501 4.713501 7.361511 11.106384 7.361511 17.772308l0 0c0 13.8810425 -11.252808 25.13385 -25.13385 25.13385l0 0c-13.8810425 0 -25.13385 -11.252808 -25.13385 -25.13385z" fill-rule="evenodd"/></g><g filter="url(#shadowFilter-p.4)"><use xlink:href="#p.4" transform="matrix(1.0 0.0 0.0 1.0 0.0 2.0)"/></g><defs><filter id="shadowFilter-p.4" filterUnits="userSpaceOnUse"><feGaussianBlur in="SourceAlpha" stdDeviation="8.5" result="blur"/><feComponentTransfer in="blur" color-interpolation-filters="sRGB"><feFuncR type="linear" slope="0" intercept="0.0"/><feFuncG type="linear" slope="0" intercept="0.0"/><feFuncB type="linear" slope="0" intercept="0.0"/><feFuncA type="linear" slope="0.5" intercept="0"/></feComponentTransfer></filter></defs><g id="p.4"><path fill="#ffffff" d="m754.6273 304.5748l0 0c0 -13.8810425 11.252808 -25.13385 25.13385 -25.13385l0 0c6.6658936 0 13.058777 2.6480103 17.772278 7.3615417c4.713562 4.713501 7.3615723 11.106384 7.3615723 17.772308l0 0c0 13.8810425 -11.252808 25.13385 -25.13385 25.13385l0 0c-13.8810425 0 -25.13385 -11.252808 -25.13385 -25.13385z" fill-rule="evenodd"/></g><g filter="url(#shadowFilter-p.5)"><use xlink:href="#p.5" transform="matrix(1.0 0.0 0.0 1.0 0.0 2.0)"/></g><defs><filter id="shadowFilter-p.5" filterUnits="userSpaceOnUse"><feGaussianBlur in="SourceAlpha" stdDeviation="8.5" result="blur"/><feComponentTransfer in="blur" color-interpolation-filters="sRGB"><feFuncR type="linear" slope="0" intercept="0.0"/><feFuncG type="linear" slope="0" intercept="0.0"/><feFuncB type="linear" slope="0" intercept="0.0"/><feFuncA type="linear" slope="0.5" intercept="0"/></feComponentTransfer></filter></defs><g id="p.5"><path fill="#ffffff" d="m867.54333 64.57481l0 0c0 -13.88105 11.252808 -25.133862 25.13385 -25.133862l0 0c6.6658936 0 13.058777 2.6480255 17.772278 7.361538c4.713562 4.7135124 7.3615723 11.106407 7.3615723 17.772324l0 0c0 13.8810425 -11.252808 25.133858 -25.13385 25.133858l0 0c-13.8810425 0 -25.13385 -11.252815 -25.13385 -25.133858z" fill-rule="evenodd"/></g><g filter="url(#shadowFilter-p.6)"><use xlink:href="#p.6" transform="matrix(1.0 0.0 0.0 1.0 0.0 2.0)"/></g><defs><filter id="shadowFilter-p.6" filterUnits="userSpaceOnUse"><feGaussianBlur in="SourceAlpha" stdDeviation="8.5" result="blur"/><feComponentTransfer in="blur" color-interpolation-filters="sRGB"><feFuncR type="linear" slope="0" intercept="0.0"/><feFuncG type="linear" slope="0" intercept="0.0"/><feFuncB type="linear" slope="0" intercept="0.0"/><feFuncA type="linear" slope="0.5" intercept="0"/></feComponentTransfer></filter></defs><g id="p.6"><path fill="#000000" fill-opacity="0.0" d="m386.22308 338.06036l121.25986 -96.31496" fill-rule="evenodd"/><path stroke="#ffffff" stroke-width="24.0" stroke-linejoin="round" stroke-linecap="butt" d="m386.22308 338.06036l121.25986 -96.31496" fill-rule="evenodd"/></g><g filter="url(#shadowFilter-p.7)"><use xlink:href="#p.7" transform="matrix(1.0 0.0 0.0 1.0 0.0 2.0)"/></g><defs><filter id="shadowFilter-p.7" filterUnits="userSpaceOnUse"><feGaussianBlur in="SourceAlpha" stdDeviation="8.5" result="blur"/><feComponentTransfer in="blur" color-interpolation-filters="sRGB"><feFuncR type="linear" slope="0" intercept="0.0"/><feFuncG type="linear" slope="0" intercept="0.0"/><feFuncB type="linear" slope="0" intercept="0.0"/><feFuncA type="linear" slope="0.5" intercept="0"/></feComponentTransfer></filter></defs><g id="p.7"><path fill="#000000" fill-opacity="0.0" d="m510.33334 241.73753l139.11807 160.47243" fill-rule="evenodd"/><path stroke="#ffffff" stroke-width="24.0" stroke-linejoin="round" stroke-linecap="butt" d="m510.33334 241.73753l139.11807 160.47243" fill-rule="evenodd"/></g><g filter="url(#shadowFilter-p.8)"><use xlink:href="#p.8" transform="matrix(1.0 0.0 0.0 1.0 0.0 2.0)"/></g><defs><filter id="shadowFilter-p.8" filterUnits="userSpaceOnUse"><feGaussianBlur in="SourceAlpha" stdDeviation="8.5" result="blur"/><feComponentTransfer in="blur" color-interpolation-filters="sRGB"><feFuncR type="linear" slope="0" intercept="0.0"/><feFuncG type="linear" slope="0" intercept="0.0"/><feFuncB type="linear" slope="0" intercept="0.0"/><feFuncA type="linear" slope="0.5" intercept="0"/></feComponentTransfer></filter></defs><g id="p.8"><path fill="#000000" fill-opacity="0.0" d="m780.78217 303.79266l-132.40948 97.29132" fill-rule="evenodd"/><path stroke="#ffffff" stroke-width="24.0" stroke-linejoin="round" stroke-linecap="butt" d="m780.78217 303.79266l-132.40948 97.29132" fill-rule="evenodd"/></g><g filter="url(#shadowFilter-p.9)"><use xlink:href="#p.9" transform="matrix(1.0 0.0 0.0 1.0 0.0 2.0)"/></g><defs><filter id="shadowFilter-p.9" filterUnits="userSpaceOnUse"><feGaussianBlur in="SourceAlpha" stdDeviation="8.5" result="blur"/><feComponentTransfer in="blur" color-interpolation-filters="sRGB"><feFuncR type="linear" slope="0" intercept="0.0"/><feFuncG type="linear" slope="0" intercept="0.0"/><feFuncB type="linear" slope="0" intercept="0.0"/><feFuncA type="linear" slope="0.5" intercept="0"/></feComponentTransfer></filter></defs><g id="p.9"><path fill="#000000" fill-opacity="0.0" d="m893.7769 64.83465l-113.921265 239.874" fill-rule="evenodd"/><path stroke="#ffffff" stroke-width="24.0" stroke-linejoin="round" stroke-linecap="butt" d="m893.7769 64.83465l-113.921265 239.874" fill-rule="evenodd"/></g><path fill="#ffffff" d="m360.24146 337.33072l0 0c0 -13.8810425 11.252838 -25.13388 25.13388 -25.13388l0 0c6.6658936 0 13.058807 2.6480408 17.772308 7.3615417c4.7135315 4.7135315 7.3615417 11.106415 7.3615417 17.772339l0 0c0 13.8810425 -11.252808 25.13385 -25.13385 25.13385l0 0c-13.8810425 0 -25.13388 -11.252808 -25.13388 -25.13385z" fill-rule="evenodd"/><path fill="#ffffff" d="m483.82416 241.01575l0 0c0 -13.8810425 11.252808 -25.13385 25.13385 -25.13385l0 0c6.6658936 0 13.058777 2.6480103 17.772339 7.3615265c4.713501 4.713516 7.361511 11.106415 7.361511 17.772324l0 0c0 13.8810425 -11.252808 25.13385 -25.13385 25.13385l0 0c-13.8810425 0 -25.13385 -11.252808 -25.13385 -25.13385z" fill-rule="evenodd"/><path fill="#ffffff" d="m623.13385 400.5748l0 0c0 -13.8810425 11.252808 -25.13385 25.13385 -25.13385l0 0c6.6659546 0 13.058838 2.6480103 17.772339 7.3615417c4.713501 4.713501 7.361511 11.106384 7.361511 17.772308l0 0c0 13.8810425 -11.252808 25.13385 -25.13385 25.13385l0 0c-13.8810425 0 -25.13385 -11.252808 -25.13385 -25.13385z" fill-rule="evenodd"/><path fill="#ffffff" d="m754.7034 304.51706l0 0c0 -13.8810425 11.252808 -25.13385 25.13385 -25.13385l0 0c6.6658936 0 13.058777 2.6480103 17.772339 7.3615417c4.713501 4.713501 7.361511 11.106384 7.361511 17.772308l0 0c0 13.8810425 -11.252808 25.13385 -25.13385 25.13385l0 0c-13.8810425 0 -25.13385 -11.252808 -25.13385 -25.13385z" fill-rule="evenodd"/><path fill="#ffffff" d="m867.54333 64.57481l0 0c0 -13.88105 11.252808 -25.133862 25.13385 -25.133862l0 0c6.6658936 0 13.058777 2.6480255 17.772278 7.361538c4.713562 4.7135124 7.3615723 11.106407 7.3615723 17.772324l0 0c0 13.8810425 -11.252808 25.133858 -25.13385 25.133858l0 0c-13.8810425 0 -25.13385 -11.252815 -25.13385 -25.133858z" fill-rule="evenodd"/></g></svg>