<svg version="1.1" viewBox="0.0 0.0 1280.0 455.0" fill="none" stroke="none" stroke-linecap="square" stroke-miterlimit="10" xmlns:xlink="http://www.w3.org/1999/xlink" xmlns="http://www.w3.org/2000/svg"><clipPath id="p.0"><path d="m0 0l1280.0 0l0 455.0l-1280.0 0l0 -455.0z" clip-rule="nonzero"/></clipPath><g clip-path="url(#p.0)"><path fill="#000000" fill-opacity="0.0" d="m0 0l1280.0 0l0 455.0l-1280.0 0z" fill-rule="evenodd"/><path fill="#434343" d="m639.8497 108.864586l0 0c2.3569946 -0.11306763 4.357361 1.7060928 4.4678955 4.0632095l2.84375 60.629486c0.053100586 1.1319275 -0.3456421 2.2390594 -1.1084595 3.0778503c-0.7628174 0.8387909 -1.8272095 1.3405151 -2.9591064 1.3948059l0 0l0 0c-2.3569946 0.11306763 -4.3573 -1.7060852 -4.4678955 -4.063202l-2.843689 -60.629494c-0.1105957 -2.3571167 1.7105103 -4.3595886 4.067505 -4.4726562z" fill-rule="evenodd"/><path fill="#000000" d="m630.2021 81.391075l0 0c0 -8.132065 6.2680054 -14.724411 14.0 -14.724411l0 0c3.7130127 0 7.273987 1.5513229 9.899536 4.312683c2.6254883 2.7613602 4.100464 6.506569 4.100464 10.411728l0 0c0 8.132065 -6.2680054 14.724411 -14.0 14.724411l0 0c-7.7319946 0 -14.0 -6.592346 -14.0 -14.724411z" fill-rule="evenodd"/><path fill="#af6416" d="m502.89502 146.90027l4.75589 -19.023628l262.80313 0l4.7559204 19.023628z" fill-rule="evenodd"/><path stroke="#783f04" stroke-width="12.0" stroke-linejoin="round" stroke-linecap="butt" d="m502.89502 146.90027l4.75589 -19.023628l262.80313 0l4.7559204 19.023628z" fill-rule="evenodd"/><path fill="#af6416" d="m502.89502 146.91077l272.31494 0l0 50.267715l-272.31494 0z" fill-rule="evenodd"/><path stroke="#783f04" stroke-width="12.0" stroke-linejoin="round" stroke-linecap="butt" d="m502.89502 146.91077l272.31494 0l0 50.267715l-272.31494 0z" fill-rule="evenodd"/><path fill="#af6416" d="m819.1483 164.41208l-12.566956 50.267715l-333.16534 0l-12.566925 -50.267715z" fill-rule="evenodd"/><path stroke="#783f04" stroke-width="12.0" stroke-linejoin="round" stroke-linecap="butt" d="m819.1483 164.41208l-12.566956 50.267715l-333.16534 0l-12.566925 -50.267715z" fill-rule="evenodd"/><path fill="#af6416" d="m471.0525 183.70341l336.0 0l0 50.267715l-336.0 0z" fill-rule="evenodd"/><path stroke="#783f04" stroke-width="12.0" stroke-linejoin="round" stroke-linecap="butt" d="m471.0525 183.70341l336.0 0l0 50.267715l-336.0 0z" fill-rule="evenodd"/><path fill="#9b5d1c" d="m477.19946 189.69554l22.80066 25.291336l278.05225 0l22.80066 -25.291336z" fill-rule="evenodd"/><path fill="#af6416" d="m479.7139 220.49606l318.67715 0l0 248.22046l-318.67715 0z" fill-rule="evenodd"/><path stroke="#783f04" stroke-width="12.0" stroke-linejoin="round" stroke-linecap="butt" d="m479.7139 220.49606l318.67715 0l0 248.22046l-318.67715 0z" fill-rule="evenodd"/><path fill="#af6416" d="m568.97375 204.1181l140.15747 0l0 264.59842l-140.15747 0z" fill-rule="evenodd"/><path stroke="#783f04" stroke-width="12.0" stroke-linejoin="round" stroke-linecap="butt" d="m568.97375 204.1181l140.15747 0l0 264.59842l-140.15747 0z" fill-rule="evenodd"/><path fill="#9b5d1c" d="m714.9659 226.40683l0 236.0315l74.834656 -236.0315z" fill-rule="evenodd"/><path fill="#9b5d1c" d="m563.1391 226.40683l0 236.0315l-74.834625 -236.0315z" fill-rule="evenodd"/><path fill="#222222" d="m636.3438 82.80577l0 0c0 -4.5661316 3.5183105 -8.267715 7.8582764 -8.267715l0 0c2.0841675 0 4.082947 0.87106323 5.5566406 2.4215622c1.4736938 1.550499 2.3016357 3.6534195 2.3016357 5.8461533l0 0c0 4.566139 -3.5182495 8.267723 -7.8582764 8.267723l0 0c-4.339966 0 -7.8582764 -3.7015839 -7.8582764 -8.267723z" fill-rule="evenodd"/><path fill="#434343" d="m644.3333 80.53015l0 0c2.0438843 0.26961517 3.480896 2.144905 3.2096558 4.1885757l-3.6790771 27.71733c-0.13024902 0.98139954 -0.6451416 1.8711777 -1.4312744 2.4735794c-0.7861328 0.60240936 -1.7791748 0.8680954 -2.7606812 0.73861694l0 0l0 0c-2.0438843 -0.26961517 -3.480896 -2.144905 -3.2096558 -4.1885757l3.6790771 -27.71733c0.27130127 -2.043663 2.1480713 -3.4818192 4.1919556 -3.2121964z" fill-rule="evenodd"/></g></svg>